<svg width="44" height="43" viewBox="0 0 44 43" fill="none" xmlns="http://www.w3.org/2000/svg">
<path d="M3.5 7C3.5 4.79086 5.29086 3 7.5 3H39.5C41.7091 3 43.5 4.79086 43.5 7V39C43.5 41.2091 41.7091 43 39.5 43H7.5C5.29086 43 3.5 41.2091 3.5 39V7Z" fill="#0275C9"/>
<path fill-rule="evenodd" clip-rule="evenodd" d="M36.5 1.5H4.5C3.11929 1.5 2 2.61929 2 4V36C2 37.3807 3.11929 38.5 4.5 38.5H36.5C37.8807 38.5 39 37.3807 39 36V4C39 2.61929 37.8807 1.5 36.5 1.5ZM4.5 0C2.29086 0 0.5 1.79086 0.5 4V36C0.5 38.2091 2.29086 40 4.5 40H36.5C38.7091 40 40.5 38.2091 40.5 36V4C40.5 1.79086 38.7091 0 36.5 0H4.5Z" fill="black"/>
<path d="M11.1738 22.4453H13.5234V20.6816H11.1738V18.3555H9.35156V20.6816H7.00195V22.4453H9.35156V24.7891H11.1738V22.4453Z" fill="white"/>
<path d="M17.4141 25H19.5645V16.5449H17.4141L15.2637 18.0098V19.8613L17.3027 18.4844H17.4141V25Z" fill="white"/>
<path d="M23.8711 25H26.0215V16.5449H23.8711L21.7207 18.0098V19.8613L23.7598 18.4844H23.8711V25Z" fill="white"/>
<path d="M31.7402 25.2285C33.9316 25.2285 35.291 23.5469 35.291 20.7578C35.291 17.9453 33.9141 16.3164 31.7402 16.3164C29.5605 16.3164 28.1895 17.9512 28.1895 20.752C28.1895 23.5527 29.543 25.2285 31.7402 25.2285ZM31.7402 23.5762C30.9199 23.5762 30.375 22.6211 30.375 20.752C30.375 18.8945 30.9199 17.9688 31.7402 17.9688C32.5605 17.9688 33.1113 18.8945 33.1113 20.752C33.1113 22.6211 32.5605 23.5762 31.7402 23.5762Z" fill="white"/>
</svg>
