<svg width="44" height="43" viewBox="0 0 44 43" fill="none" xmlns="http://www.w3.org/2000/svg">
<path d="M3.5 7C3.5 4.79086 5.29086 3 7.5 3H39.5C41.7091 3 43.5 4.79086 43.5 7V39C43.5 41.2091 41.7091 43 39.5 43H7.5C5.29086 43 3.5 41.2091 3.5 39V7Z" fill="#0275C9"/>
<path fill-rule="evenodd" clip-rule="evenodd" d="M36.5 1.5H4.5C3.11929 1.5 2 2.61929 2 4V36C2 37.3807 3.11929 38.5 4.5 38.5H36.5C37.8807 38.5 39 37.3807 39 36V4C39 2.61929 37.8807 1.5 36.5 1.5ZM4.5 0C2.29086 0 0.5 1.79086 0.5 4V36C0.5 38.2091 2.29086 40 4.5 40H36.5C38.7091 40 40.5 38.2091 40.5 36V4C40.5 1.79086 38.7091 0 36.5 0H4.5Z" fill="black"/>
<path d="M8.88672 22.4453H11.2363V20.6816H8.88672V18.3555H7.06445V20.6816H4.71484V22.4453H7.06445V24.7891H8.88672V22.4453Z" fill="white"/>
<path d="M12.9473 19.1348V19.1699H14.916V19.1289C14.916 18.4316 15.4199 17.9395 16.1465 17.9395C16.8438 17.9395 17.3008 18.3555 17.3008 18.9766C17.3008 19.4746 16.9844 19.9023 15.7422 21.0508L13.0703 23.5645V25H19.498V23.3242H15.9355V23.2129L17.3301 21.9297C18.8301 20.5938 19.3809 19.7617 19.3809 18.8242C19.3809 17.3301 18.1152 16.3164 16.2227 16.3164C14.2598 16.3164 12.9473 17.4531 12.9473 19.1348Z" fill="white"/>
<path d="M24.625 25.2227C26.6055 25.2227 28.0059 23.9629 28.0059 22.1816C28.0059 20.5762 26.8223 19.3867 25.2227 19.3867C24.2441 19.3867 23.4824 19.8262 23.1074 20.6172H22.9961C22.9199 19.0527 23.582 17.9746 24.625 17.9746C25.1992 17.9746 25.6621 18.2734 25.7969 18.7363H27.9004C27.6777 17.3125 26.3359 16.3164 24.6309 16.3164C22.3633 16.3164 20.9629 18.0332 20.9629 20.8047C20.9629 22.0469 21.2617 23.1016 21.8301 23.8516C22.4395 24.7422 23.4238 25.2227 24.625 25.2227ZM24.6074 23.5703C23.8574 23.5703 23.2773 22.9844 23.2773 22.2344C23.2773 21.4961 23.8516 20.9277 24.6074 20.9277C25.3691 20.9277 25.9434 21.4961 25.9434 22.2461C25.9434 22.9902 25.3574 23.5703 24.6074 23.5703Z" fill="white"/>
<path d="M33.0273 25.2285C35.2188 25.2285 36.5781 23.5469 36.5781 20.7578C36.5781 17.9453 35.2012 16.3164 33.0273 16.3164C30.8477 16.3164 29.4766 17.9512 29.4766 20.752C29.4766 23.5527 30.8301 25.2285 33.0273 25.2285ZM33.0273 23.5762C32.207 23.5762 31.6621 22.6211 31.6621 20.752C31.6621 18.8945 32.207 17.9688 33.0273 17.9688C33.8477 17.9688 34.3984 18.8945 34.3984 20.752C34.3984 22.6211 33.8477 23.5762 33.0273 23.5762Z" fill="white"/>
</svg>
