<svg width="22" height="22" viewBox="0 0 22 22" fill="none" xmlns="http://www.w3.org/2000/svg">
<path d="M0 4C0 1.79086 1.79086 0 4 0H18C20.2091 0 22 1.79086 22 4V18C22 20.2091 20.2091 22 18 22H4C1.79086 22 0 20.2091 0 18V4Z" fill="#182D32"/>
<path d="M10.9999 3C12.1761 3 13.1698 3.15209 13.9809 3.45627C14.8124 3.76046 15.5018 4.15589 16.0494 4.64259C16.5969 5.12928 17.0329 5.67681 17.3573 6.28517C17.6818 6.89354 17.915 7.49176 18.057 8.07985C18.2192 8.66793 18.3206 9.2256 18.3612 9.75285C18.4017 10.2598 18.422 10.6755 18.422 11C18.422 11.3245 18.4017 11.7503 18.3612 12.2776C18.3206 12.7845 18.2192 13.3321 18.057 13.9202C17.915 14.5082 17.6818 15.1065 17.3573 15.7148C17.0329 16.3232 16.5969 16.8707 16.0494 17.3574C15.5018 17.8441 14.8124 18.2395 13.9809 18.5437C13.1698 18.8479 12.1761 19 10.9999 19C9.84404 19 8.86052 18.8479 8.04936 18.5437C7.23821 18.2395 6.54873 17.8441 5.98092 17.3574C5.43339 16.8707 4.9974 16.3232 4.67294 15.7148C4.36875 15.1065 4.12541 14.5082 3.9429 13.9202C3.78067 13.3321 3.67928 12.7845 3.63872 12.2776C3.59816 11.7503 3.57788 11.3245 3.57788 11C3.57788 10.6755 3.59816 10.2598 3.63872 9.75285C3.67928 9.2256 3.78067 8.66793 3.9429 8.07985C4.12541 7.49176 4.36875 6.89354 4.67294 6.28517C4.9974 5.67681 5.43339 5.12928 5.98092 4.64259C6.54873 4.15589 7.23821 3.76046 8.04936 3.45627C8.86052 3.15209 9.84404 3 10.9999 3ZM10.9999 16.7491C11.5272 16.7491 12.0747 16.6477 12.6425 16.4449C13.2103 16.2421 13.7274 15.9176 14.1938 15.4715C14.6603 15.0051 15.0456 14.4068 15.3497 13.6768C15.6539 12.9468 15.806 12.0444 15.806 10.9696C15.806 9.8948 15.6539 8.9924 15.3497 8.26236C15.0456 7.53232 14.6603 6.94423 14.1938 6.4981C13.7274 6.05196 13.2103 5.73764 12.6425 5.55513C12.0747 5.35234 11.5272 5.25095 10.9999 5.25095C10.4524 5.25095 9.89474 5.35234 9.32693 5.55513C8.7794 5.73764 8.27243 6.05196 7.80602 6.4981C7.3396 6.94423 6.95431 7.53232 6.65012 8.26236C6.36622 8.9924 6.22427 9.8948 6.22427 10.9696C6.22427 12.0444 6.36622 12.9468 6.65012 13.6768C6.95431 14.4068 7.3396 15.0051 7.80602 15.4715C8.27243 15.9176 8.7794 16.2421 9.32693 16.4449C9.89474 16.6477 10.4524 16.7491 10.9999 16.7491Z" fill="#2FE4AB"/>
<path d="M9.42797 9.36353C9.42797 8.47808 10.1458 7.76028 11.0312 7.76028C11.9167 7.76028 12.6345 8.47808 12.6345 9.36353C12.6345 9.96578 12.3024 10.4905 11.8114 10.7645L12.6345 13.9342H9.42798L10.2511 10.7645C9.76005 10.4905 9.42797 9.96579 9.42797 9.36353Z" fill="#2FE4AB"/>
</svg>
