<svg width="7" height="8" viewBox="0 0 7 8" fill="none" xmlns="http://www.w3.org/2000/svg">
<path d="M3.13956 0.844002C3.60356 0.844002 3.99556 0.904002 4.31556 1.024C4.64356 1.144 4.91556 1.3 5.13156 1.492C5.34756 1.684 5.51956 1.9 5.64756 2.14C5.77556 2.38 5.86756 2.616 5.92356 2.848C5.98756 3.08 6.02756 3.3 6.04356 3.508C6.05956 3.708 6.06756 3.872 6.06756 4C6.06756 4.128 6.05956 4.296 6.04356 4.504C6.02756 4.704 5.98756 4.92 5.92356 5.152C5.86756 5.384 5.77556 5.62 5.64756 5.86C5.51956 6.1 5.34756 6.316 5.13156 6.508C4.91556 6.7 4.64356 6.856 4.31556 6.976C3.99556 7.096 3.60356 7.156 3.13956 7.156C2.68356 7.156 2.29556 7.096 1.97556 6.976C1.65556 6.856 1.38356 6.7 1.15956 6.508C0.943563 6.316 0.771562 6.1 0.643562 5.86C0.523562 5.62 0.427562 5.384 0.355562 5.152C0.291562 4.92 0.251563 4.704 0.235563 4.504C0.219563 4.296 0.211563 4.128 0.211563 4C0.211563 3.872 0.219563 3.708 0.235563 3.508C0.251563 3.3 0.291562 3.08 0.355562 2.848C0.427562 2.616 0.523562 2.38 0.643562 2.14C0.771562 1.9 0.943563 1.684 1.15956 1.492C1.38356 1.3 1.65556 1.144 1.97556 1.024C2.29556 0.904002 2.68356 0.844002 3.13956 0.844002ZM3.13956 6.268C3.34756 6.268 3.56356 6.228 3.78756 6.148C4.01156 6.068 4.21556 5.94 4.39956 5.764C4.58356 5.58 4.73556 5.344 4.85556 5.056C4.97556 4.768 5.03556 4.412 5.03556 3.988C5.03556 3.564 4.97556 3.208 4.85556 2.92C4.73556 2.632 4.58356 2.4 4.39956 2.224C4.21556 2.048 4.01156 1.924 3.78756 1.852C3.56356 1.772 3.34756 1.732 3.13956 1.732C2.92356 1.732 2.70356 1.772 2.47956 1.852C2.26356 1.924 2.06356 2.048 1.87956 2.224C1.69556 2.4 1.54356 2.632 1.42356 2.92C1.31156 3.208 1.25556 3.564 1.25556 3.988C1.25556 4.412 1.31156 4.768 1.42356 5.056C1.54356 5.344 1.69556 5.58 1.87956 5.764C2.06356 5.94 2.26356 6.068 2.47956 6.148C2.70356 6.228 2.92356 6.268 3.13956 6.268Z" fill="black"/>
<circle cx="3.15185" cy="3.35441" r="0.632482" fill="black"/>
<path fill-rule="evenodd" clip-rule="evenodd" d="M3.78433 5.15755L3.22405 3H3.07964L2.51936 5.15755H3.78433Z" fill="black"/>
</svg>
